<svg xmlns="http://www.w3.org/2000/svg">
  <symbol  id="link" fill="currentColor" class="bi bi-pause-btn" viewBox="0 0 16 16">
    <path fill-rule="evenodd"
      d="M15 2a1 1 0 0 0-1-1H2a1 1 0 0 0-1 1v12a1 1 0 0 0 1 1h12a1 1 0 0 0 1-1V2zM0 2a2 2 0 0 1 2-2h12a2 2 0 0 1 2 2v12a2 2 0 0 1-2 2H2a2 2 0 0 1-2-2V2zm5.854 8.803a.5.5 0 1 1-.708-.707L9.243 6H6.475a.5.5 0 1 1 0-1h3.975a.5.5 0 0 1 .5.5v3.975a.5.5 0 1 1-1 0V6.707l-4.096 4.096z" />
  </symbol>

  <symbol id="export" class="bi bi-box-arrow-in-down" viewBox="0 0 16 16" fill="currentColor">
    <path fill-rule="evenodd" d="M4.646 8.146a.5.5 0 0 1 .708 0L8 10.793l2.646-2.647a.5.5 0 0 1 .708.708l-3 3a.5.5 0 0 1-.708 0l-3-3a.5.5 0 0 1 0-.708z"/>
    <path fill-rule="evenodd" d="M8 1a.5.5 0 0 1 .5.5v9a.5.5 0 0 1-1 0v-9A.5.5 0 0 1 8 1z"/>
    <path fill-rule="evenodd" d="M1.5 13.5A1.5 1.5 0 0 0 3 15h10a1.5 1.5 0 0 0 1.5-1.5v-8A1.5 1.5 0 0 0 13 4h-1.5a.5.5 0 0 0 0 1H13a.5.5 0 0 1 .5.5v8a.5.5 0 0 1-.5.5H3a.5.5 0 0 1-.5-.5v-8A.5.5 0 0 1 3 5h1.5a.5.5 0 0 0 0-1H3a1.5 1.5 0 0 0-1.5 1.5v8z"/>
  </symbol>

  <symbol id="x" viewBox="0 0 16 16" class="bi bi-x" fill="currentColor">
    <path fill-rule="evenodd" d="M11.854 4.146a.5.5 0 0 1 0 .708l-7 7a.5.5 0 0 1-.708-.708l7-7a.5.5 0 0 1 .708 0z"/>
    <path fill-rule="evenodd" d="M4.146 4.146a.5.5 0 0 0 0 .708l7 7a.5.5 0 0 0 .708-.708l-7-7a.5.5 0 0 0-.708 0z"/>
  </symbol>

  <symbol id="like_filled" viewBox="0 0 16 16" class="bi bi-heart-fill" fill="currentColor">
    <path fill-rule="evenodd" d="M8 1.314C12.438-3.248 23.534 4.735 8 15-7.534 4.736 3.562-3.248 8 1.314z"/>
  </symbol>

  <symbol id="like_empty" viewBox="0 0 16 16" class="bi bi-heart" fill="currentColor">
    <path fill-rule="evenodd" d="M8 2.748l-.717-.737C5.6.281 2.514.878 1.4 3.053c-.523 1.023-.641 2.5.314 4.385.92 1.815 2.834 3.989 6.286 6.357 3.452-2.368 5.365-4.542 6.286-6.357.955-1.886.838-3.362.314-4.385C13.486.878 10.4.28 8.717 2.01L8 2.748zM8 15C-7.333 4.868 3.279-3.04 7.824 1.143c.06.055.119.112.176.171a3.12 3.12 0 0 1 .176-.17C12.72-3.042 23.333 4.867 8 15z"/>
  </symbol>

  <symbol id="trash" viewBox="0 0 16 16" fill="currentColor">
    <path d="M5.5 5.5A.5.5 0 0 1 6 6v6a.5.5 0 0 1-1 0V6a.5.5 0 0 1 .5-.5zm2.5 0a.5.5 0 0 1 .5.5v6a.5.5 0 0 1-1 0V6a.5.5 0 0 1 .5-.5zm3 .5a.5.5 0 0 0-1 0v6a.5.5 0 0 0 1 0V6z"/>
    <path fill-rule="evenodd" d="M14.5 3a1 1 0 0 1-1 1H13v9a2 2 0 0 1-2 2H5a2 2 0 0 1-2-2V4h-.5a1 1 0 0 1-1-1V2a1 1 0 0 1 1-1H6a1 1 0 0 1 1-1h2a1 1 0 0 1 1 1h3.5a1 1 0 0 1 1 1v1zM4.118 4 4 4.059V13a1 1 0 0 0 1 1h6a1 1 0 0 0 1-1V4.059L11.882 4H4.118zM2.5 3V2h11v1h-11z"/>
  </symbol>

   <symbol id="eject" class="bi bi-eject" viewBox="0 0 16 16" fill="currentColor">
    <path d="M7.27 1.047a1 1 0 0 1 1.46 0l6.345 6.77c.6.638.146 1.683-.73 1.683H1.656C.78 9.5.326 8.455.926 7.816L7.27 1.047zM14.346 8.5 8 1.731 1.654 8.5h12.692zM.5 11.5a1 1 0 0 1 1-1h13a1 1 0 0 1 1 1v1a1 1 0 0 1-1 1h-13a1 1 0 0 1-1-1v-1zm14 0h-13v1h13v-1z"/>
  </symbol>


<symbol id="floppy_cable"  viewBox="0 -960 960 960"  fill="currentColor"><path d="M325-111.5q-73-31.5-127.5-86t-86-127.5Q80-398 80-480.5t31.5-155q31.5-72.5 86-127t127.5-86Q398-880 480.5-880t155 31.5q72.5 31.5 127 86t86 127Q880-563 880-480.5T848.5-325q-31.5 73-86 127.5t-127 86Q563-80 480.5-80T325-111.5ZM480-480Zm-137.5 22.5Q360-475 360-500t-17.5-42.5Q325-560 300-560t-42.5 17.5Q240-525 240-500t17.5 42.5Q275-440 300-440t42.5-17.5Zm360 0Q720-475 720-500t-17.5-42.5Q685-560 660-560t-42.5 17.5Q600-525 600-500t17.5 42.5Q635-440 660-440t42.5-17.5Zm-300 180Q420-295 420-320t-17.5-42.5Q385-380 360-380t-42.5 17.5Q300-345 300-320t17.5 42.5Q335-260 360-260t42.5-17.5Zm240 0Q660-295 660-320t-17.5-42.5Q625-380 600-380t-42.5 17.5Q540-345 540-320t17.5 42.5Q575-260 600-260t42.5-17.5ZM420-600h120q26 0 43-17t17-43q0-26-17-43t-43-17H420q-26 0-43 17t-17 43q0 26 17 43t43 17Zm60 440q133 0 226.5-93.5T800-480q0-133-93.5-226.5T480-800q-133 0-226.5 93.5T160-480q0 133 93.5 226.5T480-160Z"/></symbol>


</svg>


